<svg xmlns="http://www.w3.org/2000/svg" width="18" height="18" viewBox="0 0 18 18" fill="black" fill-opacity="1">
<path fill-rule="evenodd" clip-rule="evenodd" d="M9.00029 16.1999C12.9767 16.1999 16.2003 12.9764 16.2003 8.99993C16.2003 5.02348 12.9767 1.79993 9.00029 1.79993C5.02384 1.79993 1.80029 5.02348 1.80029 8.99993C1.80029 12.9764 5.02384 16.1999 9.00029 16.1999ZM9.00029 5.54956C9.41451 5.54956 9.75029 5.88535 9.75029 6.29956L9.75029 8.24956H11.7003C12.1145 8.24956 12.4503 8.58535 12.4503 8.99956C12.4503 9.41377 12.1145 9.74956 11.7003 9.74956H9.75029V11.6996C9.75029 12.1138 9.41451 12.4496 9.00029 12.4496C8.58608 12.4496 8.25029 12.1138 8.25029 11.6996V9.74956H6.30029C5.88608 9.74956 5.55029 9.41377 5.55029 8.99956C5.55029 8.58535 5.88608 8.24956 6.30029 8.24956H8.25029L8.25029 6.29956C8.25029 5.88535 8.58608 5.54956 9.00029 5.54956Z" />
</svg>