<svg xmlns="http://www.w3.org/2000/svg" width="16" height="16" viewBox="0 0 16 16" fill-opacity="1" fill="black">
  <path d="M4.79998 8C4.79998 8.88366 4.08363 9.6 3.19998 9.6C2.31632 9.6 1.59998 8.88366 1.59998 8C1.59998 7.11635 2.31632 6.4 3.19998 6.4C4.08363 6.4 4.79998 7.11635 4.79998 8Z"  />
  <path d="M9.59998 8C9.59998 8.88366 8.88363 9.6 7.99998 9.6C7.11632 9.6 6.39998 8.88366 6.39998 8C6.39998 7.11635 7.11632 6.4 7.99998 6.4C8.88363 6.4 9.59998 7.11635 9.59998 8Z"  />
  <path d="M14.4 8C14.4 8.88366 13.6836 9.6 12.8 9.6C11.9163 9.6 11.2 8.88366 11.2 8C11.2 7.11635 11.9163 6.4 12.8 6.4C13.6836 6.4 14.4 7.11635 14.4 8Z"  />
</svg>