<svg xmlns="http://www.w3.org/2000/svg" width="24" height="24" viewBox="0 0 24 24" fill="black">
  <path d="M2.4 4.99998C2.4 4.22678 3.01401 3.59998 3.77143 3.59998H9.25714C10.0146 3.59998 10.6286 4.22678 10.6286 4.99998V5.39998C10.6286 5.95226 10.1809 6.39998 9.62857 6.39998H3.4C2.84771 6.39998 2.4 5.95226 2.4 5.39998V4.99998Z" />
  <path d="M2.40034 9.7999C2.40038 8.69536 3.2958 7.79998 4.40034 7.79998H19.6C20.7046 7.79998 21.6 8.69541 21.6 9.79998V18.4C21.6 19.5045 20.7046 20.4 19.6 20.4H4.4C3.2954 20.4 2.39996 19.5045 2.4 18.3999L2.40034 9.7999Z" />
</svg>