<svg xmlns="http://www.w3.org/2000/svg" width="20" height="20" viewBox="0 0 20 20" fill="none" stroke-opacity="1" stroke="black"  stroke-width="1.5" stroke-linecap="round" stroke-linejoin="round">
  <path d="M10 14L10 11.1716M10 11.1716L10 8.34317M10 11.1716L7.17157 11.1716M10 11.1716L12.8284 11.1716M2.00078 14.6175L2.00086 7.0139C2.00086 6.2523 2.00058 5.16753 2.00034 4.38207C2.00017 3.82964 2.44794 3.38232 3.00037 3.38232H7.76555L10.0697 5.84369H17C17.5523 5.84369 18 6.29142 18 6.84372L17.9997 14.6176C17.9997 15.7222 17.1043 16.6176 15.9997 16.6176L4.00078 16.6175C2.8962 16.6175 2.00077 15.7221 2.00078 14.6175Z" />
</svg>