<svg width="20" height="20" viewBox="0 0 20 20" fill="none" xmlns="http://www.w3.org/2000/svg">
  <g clip-path="url(#clip0_3426_2080)">
    <circle cx="10" cy="10" r="10" />
    <path opacity="0.9" fill-rule="evenodd" clip-rule="evenodd" d="M12.5 5.5C13.3284 5.5 14 6.10442 14 6.85V13.15C14 13.8956 13.3284 14.5 12.5 14.5C11.6716 14.5 11 13.8956 11 13.15V6.85C11 6.10442 11.6716 5.5 12.5 5.5ZM7.5 5.5C8.32843 5.5 9 6.10442 9 6.85V13.15C9 13.8956 8.32843 14.5 7.5 14.5C6.67157 14.5 6 13.8956 6 13.15V6.85C6 6.10442 6.67157 5.5 7.5 5.5Z" fill="white"/>
  </g>
  <defs>
    <clipPath id="clip0_3426_2080">
      <rect width="20" height="20" fill="white"/>
    </clipPath>
  </defs>
</svg>