<svg xmlns="http://www.w3.org/2000/svg" width="18" height="16" viewBox="0 0 18 16" fill="#0000004D" stroke-opacity="0">
  <path fill-rule="evenodd" clip-rule="evenodd" d="M10.8206 1.17002C10.4159 -0.390006 8.05165 -0.390006 7.64696 1.17002C7.58654 1.40444 7.46804 1.62215 7.30109 1.80544C7.13414 1.98873 6.92346 2.13241 6.6862 2.2248C6.44894 2.3172 6.1918 2.35568 5.93571 2.33713C5.67961 2.31857 5.43181 2.24351 5.21245 2.11803C3.75131 1.28202 2.07931 2.85204 2.96962 4.22407C3.54471 5.11008 3.03459 6.2661 1.9611 6.5111C0.298683 6.89011 0.298683 9.11114 1.9611 9.48915C2.21081 9.54595 2.4427 9.65734 2.6379 9.81423C2.83309 9.97111 2.98606 10.1691 3.08436 10.392C3.18266 10.6149 3.2235 10.8565 3.20356 11.097C3.18363 11.3375 3.10347 11.5702 2.96962 11.7762C2.07931 13.1482 3.75131 14.7182 5.21245 13.8822C5.43177 13.7565 5.6796 13.6813 5.93576 13.6625C6.19192 13.6438 6.44917 13.6822 6.68655 13.7745C6.92394 13.8668 7.13476 14.0104 7.30184 14.1937C7.46892 14.377 7.58753 14.5948 7.64803 14.8292C8.05165 16.3903 10.4169 16.3903 10.8195 14.8292C10.8802 14.5949 10.9989 14.3773 11.1661 14.1941C11.3332 14.0109 11.5439 13.8674 11.7813 13.7751C12.0186 13.6828 12.2757 13.6445 12.5318 13.6631C12.7879 13.6817 13.0357 13.7568 13.2551 13.8822C14.7162 14.7182 16.3882 13.1482 15.4979 11.7762C15.3643 11.5702 15.2843 11.3375 15.2645 11.097C15.2447 10.8566 15.2856 10.6151 15.3839 10.3922C15.4821 10.1694 15.635 9.97148 15.8301 9.81456C16.0251 9.65764 16.2569 9.54615 16.5064 9.48915C18.1688 9.11014 18.1688 6.88911 16.5064 6.5111C16.2567 6.4543 16.0248 6.34291 15.8296 6.18603C15.6344 6.02914 15.4815 5.83118 15.3832 5.60827C15.2849 5.38536 15.244 5.1438 15.264 4.90326C15.2839 4.66272 15.3641 4.43001 15.4979 4.22407C16.3882 2.85204 14.7162 1.28202 13.2551 2.11803C13.0358 2.24372 12.7879 2.31898 12.5318 2.33771C12.2756 2.35643 12.0184 2.31808 11.781 2.22577C11.5436 2.13347 11.3328 1.98983 11.1657 1.80654C10.9986 1.62325 10.88 1.4055 10.8195 1.17102L10.8206 1.17002ZM9.23377 11.0002C10.0811 11.0002 10.8937 10.6841 11.4929 10.1215C12.0921 9.55886 12.4287 8.79579 12.4287 8.00012C12.4287 7.20446 12.0921 6.44139 11.4929 5.87877C10.8937 5.31615 10.0811 5.00008 9.23377 5.00008C8.38643 5.00008 7.57379 5.31615 6.97463 5.87877C6.37547 6.44139 6.03886 7.20446 6.03886 8.00012C6.03886 8.79579 6.37547 9.55886 6.97463 10.1215C7.57379 10.6841 8.38643 11.0002 9.23377 11.0002Z"  fill-opacity="1"/>
</svg>