<svg xmlns="http://www.w3.org/2000/svg" width="18" height="16" viewBox="0 0 18 16" fill="#0000004D" fill-opacity="1" stroke-opacity="0">
<path d="M0.649351 1.77778C0.649351 0.795938 1.49697 0 2.54257 0H6.32901C7.3746 0 8.22222 0.795938 8.22222 1.77778V5.33333C8.22222 6.31517 7.3746 7.11111 6.32901 7.11111H2.54257C1.49697 7.11111 0.649351 6.31517 0.649351 5.33333V1.77778Z" />
<path d="M0.649351 10.6667C0.649351 9.68483 1.49697 8.88889 2.54257 8.88889H6.32901C7.3746 8.88889 8.22222 9.68483 8.22222 10.6667V14.2222C8.22222 15.2041 7.3746 16 6.32901 16H2.54257C1.49697 16 0.649351 15.2041 0.649351 14.2222V10.6667Z"/>
<path d="M10.1154 1.77778C10.1154 0.795938 10.9631 0 12.0087 0H15.7951C16.8407 0 17.6883 0.795938 17.6883 1.77778V5.33333C17.6883 6.31517 16.8407 7.11111 15.7951 7.11111H12.0087C10.9631 7.11111 10.1154 6.31517 10.1154 5.33333V1.77778Z" />
<path d="M10.1154 10.6667C10.1154 9.68483 10.9631 8.88889 12.0087 8.88889H15.7951C16.8407 8.88889 17.6883 9.68483 17.6883 10.6667V14.2222C17.6883 15.2041 16.8407 16 15.7951 16H12.0087C10.9631 16 10.1154 15.2041 10.1154 14.2222V10.6667Z" />
</svg>
