<svg xmlns="http://www.w3.org/2000/svg" width="17" height="16" viewBox="0 0 17 16" fill="#0000004D" stroke-opacity="0">
<path fill-rule="evenodd" clip-rule="evenodd" d="M14.5021 0.832337C14.5021 0.37265 14.119 0 13.6464 0C13.1738 0 12.7906 0.37265 12.7906 0.832337V1.94271L4.70779 1.94275V0.832428C4.70779 0.372741 4.32466 9.10199e-05 3.85204 9.10199e-05C3.37942 9.10199e-05 2.99629 0.372741 2.99629 0.832428V1.94275C1.73597 1.94275 0.714287 2.93649 0.714287 4.16232V13.7804C0.714287 15.0063 1.73597 16 2.99629 16H14.4063C15.6666 16 16.6883 15.0063 16.6883 13.7804V4.16232C16.6883 2.96771 15.718 1.99352 14.5021 1.94467L14.5021 1.94271V0.832337ZM3.28154 6.38188C3.28154 5.9222 3.66467 5.54955 4.13729 5.54955H13.6456C14.1183 5.54955 14.5014 5.9222 14.5014 6.38188C14.5014 6.84157 14.1183 7.21422 13.6456 7.21422H4.13729C3.66467 7.21422 3.28154 6.84157 3.28154 6.38188Z" fill-opacity="1"/>
</svg>