<svg width="30" height="30" viewBox="0 0 30 30" fill="none" xmlns="http://www.w3.org/2000/svg">
<path fill-rule="evenodd" clip-rule="evenodd" d="M5.73205 22.3488C6.28732 22.3488 6.78739 22.5851 7.13715 22.9627L7.15172 22.9485C9.16903 24.9405 11.9409 26.1702 15 26.1702C15.6459 26.1702 16.2791 26.1154 16.895 26.0101C16.9933 26.0026 17.0928 25.9947 17.1941 25.9947C18.2517 25.9947 19.109 26.852 19.109 27.9096C19.109 28.9203 18.326 29.7481 17.3336 29.8195C16.5731 29.9383 15.7938 30 15 30C10.9598 30 7.29269 28.4027 4.59569 25.8051C4.12335 25.4562 3.81715 24.8957 3.81715 24.2637C3.81715 23.2061 4.67448 22.3488 5.73205 22.3488ZM15.0087 2.48162e-06C23.289 0.00471434 30 6.71864 30 15C30 19.5475 27.9764 23.6223 24.7806 26.3731C24.4423 26.669 24.0003 26.8484 23.5165 26.8484C22.4589 26.8484 21.6016 25.9911 21.6016 24.9335C21.6016 24.3406 21.8711 23.8106 22.2943 23.4593C24.6681 21.4111 26.1702 18.381 26.1702 15C26.1702 8.83377 21.1739 3.8345 15.0087 3.82979L15 3.82979C13.9424 3.82979 13.0851 2.97246 13.0851 1.91489C13.0851 0.857327 13.9424 0 15 0L15.0087 2.48162e-06ZM1.984 12.0493C3.04141 12.0678 3.88364 12.9399 3.86519 13.9973C3.86388 14.0719 3.85834 14.1454 3.84878 14.2176L3.85673 14.2181C3.83887 14.4764 3.82979 14.7372 3.82979 15C3.82979 15.9462 3.94744 16.865 4.16891 17.7424C4.20031 17.8895 4.21658 18.0425 4.21383 18.1997C4.19538 19.2571 3.32322 20.0993 2.26581 20.0808C1.35938 20.065 0.61107 19.4219 0.427485 18.5725C0.14828 17.4273 0 16.231 0 15C0 14.6474 0.0121638 14.2977 0.0360947 13.9512L0.0359808 13.9305C0.0544379 12.8731 0.926597 12.0309 1.984 12.0493Z" fill="black" fill-opacity="0.9"/>
<path d="M4.41033 9.24172C5.46773 9.26017 6.33989 8.41794 6.35835 7.36053C6.37681 6.30313 5.53457 5.43097 4.47717 5.41251C3.41976 5.39406 2.5476 6.23629 2.52915 7.29369C2.51069 8.3511 3.35292 9.22326 4.41033 9.24172Z" stroke="black" stroke-width="2"/>
<path fill-rule="evenodd" clip-rule="evenodd" d="M15 6.2234C19.8472 6.2234 23.7766 10.1528 23.7766 15C23.7766 19.8472 19.8472 23.7766 15 23.7766C10.1528 23.7766 6.2234 19.8472 6.2234 15C6.2234 10.1528 10.1528 6.2234 15 6.2234ZM15.0199 10.2128C12.365 10.2128 10.2128 12.365 10.2128 15.0199C10.2128 17.6749 12.365 19.8271 15.0199 19.8271C17.6749 19.8271 19.8271 17.6749 19.8271 15.0199C19.8271 12.365 17.6749 10.2128 15.0199 10.2128Z" fill="black" fill-opacity="0.9"/>
</svg>
